<svg xmlns="http://www.w3.org/2000/svg" xmlns:xlink="http://www.w3.org/1999/xlink" width="50" zoomAndPan="magnify" viewBox="0 0 37.5 37.499999" height="50" preserveAspectRatio="xMidYMid meet" version="1.0"><defs><clipPath id="8f6ef8a4ec"><path d="M 0 0 L 37.007812 0 L 37.007812 37.007812 L 0 37.007812 Z M 0 0 " clip-rule="nonzero"/></clipPath><clipPath id="682044d8a0"><path d="M 0.976562 0.976562 L 36.226562 0.976562 L 36.226562 36.226562 L 0.976562 36.226562 Z M 0.976562 0.976562 " clip-rule="nonzero"/></clipPath></defs><g clip-path="url(#8f6ef8a4ec)"><path fill="#ffffff" d="M 0 0 L 37.5 0 L 37.5 45 L 0 45 Z M 0 0 " fill-opacity="1" fill-rule="nonzero"/><path fill="#ffffff" d="M 0 0 L 37.5 0 L 37.5 37.5 L 0 37.5 Z M 0 0 " fill-opacity="1" fill-rule="nonzero"/><path fill="#001528" d="M 0 0 L 37.5 0 L 37.5 37.5 L 0 37.5 Z M 0 0 " fill-opacity="1" fill-rule="nonzero"/></g><g clip-path="url(#682044d8a0)"><path fill="#fafafa" d="M 18.601562 36.226562 C 8.882812 36.226562 0.976562 28.316406 0.976562 18.601562 C 0.976562 8.882812 8.882812 0.976562 18.601562 0.976562 C 28.320312 0.976562 36.226562 8.882812 36.226562 18.601562 C 36.226562 28.316406 28.320312 36.226562 18.601562 36.226562 Z M 18.601562 4.449219 C 10.796875 4.449219 4.449219 10.796875 4.449219 18.601562 C 4.449219 26.402344 10.796875 32.75 18.601562 32.75 C 26.402344 32.75 32.75 26.402344 32.75 18.601562 C 32.75 10.796875 26.402344 4.449219 18.601562 4.449219 Z M 18.601562 4.449219 " fill-opacity="1" fill-rule="nonzero"/></g><path fill="#fafafa" d="M 25.074219 22.441406 L 21.234375 18.601562 L 25.074219 14.757812 C 25.800781 14.03125 25.800781 12.851562 25.074219 12.125 C 24.347656 11.398438 23.167969 11.398438 22.441406 12.125 L 18.601562 15.96875 L 14.761719 12.125 C 14.03125 11.398438 12.855469 11.398438 12.125 12.125 C 11.398438 12.851562 11.398438 14.03125 12.125 14.757812 L 15.96875 18.601562 L 12.125 22.441406 C 11.398438 23.167969 11.398438 24.347656 12.125 25.074219 C 12.851562 25.804688 14.03125 25.800781 14.757812 25.074219 L 18.601562 21.230469 L 22.441406 25.074219 C 23.167969 25.800781 24.347656 25.800781 25.074219 25.074219 C 25.804688 24.347656 25.804688 23.167969 25.074219 22.441406 Z M 25.074219 22.441406 " fill-opacity="1" fill-rule="nonzero"/></svg>